<svg aria-hidden="true" style="position: absolute; width: 0; height: 0; overflow: hidden;" version="1.1" xmlns="http://www.w3.org/2000/svg" xmlns:xlink="http://www.w3.org/1999/xlink">
<defs>
<symbol id="icon-trident" viewBox="0 0 25 32">
<path d="M9.265 22.020c0 0.023 0.001 0.045 0.001 0.068h1.065c-0.001-0.028-0.002-0.057-0.002-0.085-0-0.023-0.001-0.047-0.001-0.070-0.001-0.354 0.081-0.697 0.090-0.831 0.279-2.041 1.612-2.915 1.641-2.933 0.092 0.079 1.397 1.139 1.645 2.96 0.009 0.134 0.084 0.48 0.089 0.834 0.001 0.023 0.001 0.047 0.001 0.071-0 0.018-0 0.037-0.001 0.055h1.062c0-0.023 0.001-0.045 0.001-0.068 0-1.795-0.762-3.070-1.491-3.878h0.021c-0.623-1.313-0.735-2.782-0.671-4.24 0.061-1.393 0.107-3.191 0.16-4.585 0.029-0.761-0.154-1.466-0.67-2.081-0.031-0.037-0.129-0.131-0.155-0.148 0 0-0.124 0.112-0.155 0.149-0.516 0.615-0.698 1.32-0.67 2.081 0.052 1.394 0.098 3.192 0.16 4.585 0.064 1.451-0.004 2.936-0.645 4.23-0.723 0.799-1.474 2.066-1.474 3.886z"></path>
<path d="M18.074 9.076c-0.031 0.004-0.052 0.003-0.069 0.011-0.049 0.023-0.097 0.046-0.143 0.074-0.625 0.383-1.166 0.862-1.622 1.436-0.915 1.153-1.361 2.478-1.477 3.934-0.062 0.776-0.174 1.548-0.261 2.322-0.044 0.391-0.082 0.783-0.123 1.178 0.384-0.063 0.683 0.078 0.938 0.31 0.35 0.319 0.408 0.834 0.109 1.201-0.137 0.168-0.344 0.287-0.538 0.4-0.007 0.004-0.014 0.008-0.021 0.012 0.108 0.303 0.196 0.629 0.255 0.98 0.023-0.008 0.047-0.017 0.061-0.022 0.812-0.285 1.313-0.838 1.435-1.701 0.104-0.735-0.3-1.514-0.988-1.908-0.117-0.067-0.155-0.13-0.138-0.266 0.106-0.86 0.218-1.72 0.296-2.583 0.072-0.799 0.296-1.538 0.645-2.265 0.163-0.339 0.625-1.014 0.625-1.014s0 7.559 0 11.319h-4.083v0.911h0.684c-0.205 0.982-0.702 1.639-1.088 2.020v-3.098c0.058-0.242 0.24-0.566 0.784-0.729 0.027-0.008 0.055-0.018 0.082-0.027-0.018-0.145-0.037-0.264-0.041-0.328-0.026-0.213-0.065-0.412-0.113-0.598-0.095 0.030-0.173 0.056-0.229 0.076-0.343 0.124-0.876 0.572-0.991 0.665-0.114-0.092-0.648-0.541-0.991-0.665-0.056-0.020-0.135-0.046-0.229-0.076-0.047 0.186-0.086 0.385-0.113 0.598-0.004 0.064-0.024 0.183-0.041 0.328 0.027 0.010 0.055 0.019 0.082 0.027 0.534 0.16 0.72 0.475 0.781 0.715v3.099c-0.384-0.387-0.878-1.046-1.086-2.008h0.688v-0.911h-4.090v-11.319s0.462 0.675 0.625 1.014c0.349 0.726 0.572 1.465 0.645 2.265 0.078 0.863 0.19 1.723 0.296 2.583 0.017 0.135-0.021 0.198-0.138 0.266-0.688 0.395-1.093 1.174-0.988 1.908 0.123 0.863 0.623 1.416 1.435 1.701 0.013 0.005 0.036 0.013 0.058 0.021 0.058-0.353 0.144-0.681 0.25-0.984-0.004-0.002-0.008-0.005-0.012-0.007-0.194-0.113-0.402-0.232-0.538-0.4-0.299-0.367-0.241-0.883 0.109-1.201 0.256-0.233 0.554-0.373 0.938-0.31-0.041-0.395-0.079-0.787-0.123-1.178-0.087-0.774-0.2-1.546-0.261-2.322-0.116-1.457-0.562-2.782-1.477-3.934-0.456-0.574-0.997-1.053-1.622-1.436-0.046-0.028-0.094-0.052-0.143-0.074-0.017-0.008-0.038-0.006-0.069-0.011v14.331h3.324c0.511 2.41 2.689 3.496 2.689 3.496s2.189-1.038 2.693-3.496h3.321v-14.331z"></path>
</symbol>
</defs>
</svg>
